<svg xmlns="http://www.w3.org/2000/svg" data-name="Слой 1" viewBox="0 0 128 128" x="0px" y="0px"><path d="M51,104.19a8.57,8.57,0,0,0-8.39-6.9h0A8.53,8.53,0,0,0,38,98.58,14.54,14.54,0,0,0,23.59,86.27h0a11.88,11.88,0,0,0-1.54.11A17.07,17.07,0,0,0,6,75a16.81,16.81,0,0,0-5.09.8,1,1,0,0,0,.61,1.9A14.86,14.86,0,0,1,6,77,15.08,15.08,0,0,1,20.35,87.78a1,1,0,0,0,1.13.71,13,13,0,0,1,2.07-.22h0A12.57,12.57,0,0,1,36.2,100.53a1,1,0,0,0,1.71.68,6.56,6.56,0,0,1,4.63-1.92h0a6.58,6.58,0,0,1,6.52,5.84,1,1,0,0,0,.83.87,5.18,5.18,0,0,1,.61,10.07,8.34,8.34,0,0,1-2.34.28,9.42,9.42,0,0,0-6.82-7,8.18,8.18,0,0,0-14.71-4.44,15.21,15.21,0,0,0-10.37-1,9.56,9.56,0,0,0-5.56-4.4,10.85,10.85,0,0,0,1.21-5A10.94,10.94,0,0,0,1,83.55a1,1,0,0,0,0,2,8.94,8.94,0,0,1,8.93,8.93,8.87,8.87,0,0,1-1.61,5.11A1,1,0,0,0,9,101.15a7.51,7.51,0,0,1,5.84,4.33h0a9.63,9.63,0,0,1,.84,3.14,1,1,0,0,0,2,0,9.32,9.32,0,0,0-.59-2.87,13.23,13.23,0,0,1,9.38,1.35,1,1,0,0,0,1.36-.37,6.18,6.18,0,0,1,11.48,2.37,8.84,8.84,0,0,0-4.65,1,1,1,0,0,0,.53,1.85,1,1,0,0,0,.53-.15c1.61-1,4.29-.7,4.47-.68A7.47,7.47,0,0,1,38.95,126a1,1,0,0,0,0,2,9.48,9.48,0,0,0,9.47-9.47c0-.06,0-.11,0-.17h0a10.5,10.5,0,0,0,2.61-.37A7.18,7.18,0,0,0,51,104.19Z"/><path d="M72.69,75a24.87,24.87,0,0,0,3-4.4l10.44,8.81a1,1,0,0,0,.65.24l.24,0a1,1,0,0,0,.69-.6,31.67,31.67,0,0,0,1.8-10.84c0-14.38-1.53-17.2-8-21.87,0-.68,0-1.36,0-2,0-10.91-4.22-24.3-8.8-33.48a1,1,0,0,0-.36-.71C69.32,4,66.13,0,64,0,58.49,0,46.44,25.25,46.44,44.25c0,.69,0,1.37,0,2-6.48,4.67-8,7.48-8,21.87A31.67,31.67,0,0,0,40.26,79a1,1,0,0,0,.69.6l.24,0a1,1,0,0,0,.65-.24l10.44-8.81a24.87,24.87,0,0,0,3,4.4,1,1,0,0,0,.75.34H63v3.31a1,1,0,0,0,2,0V75.31h6.94A1,1,0,0,0,72.69,75Zm7.89-19a67.06,67.06,0,0,0,.84-7.24c4.8,3.6,6.12,6.19,6.12,19.47a32.15,32.15,0,0,1-1.19,8.76l-9.68-8.18a49.31,49.31,0,0,0,3.81-12.3,1,1,0,0,0,.1-.42S80.58,56,80.58,55.93ZM64,2c1,0,3.2,2.72,5.59,7.07A36.45,36.45,0,0,0,64,8.73a35.77,35.77,0,0,0-5.7.36C60.71,4.72,62.92,2,64,2ZM41.65,76.93a32.15,32.15,0,0,1-1.19-8.76c0-13.28,1.31-15.87,6.12-19.47a67.06,67.06,0,0,0,.84,7.24s0,.07,0,.1a1,1,0,0,0,.1.42,49.31,49.31,0,0,0,3.81,12.3ZM63,73.31H56.52c-3.2-3.8-5.6-9.7-6.93-16.62A119.34,119.34,0,0,1,63,56.13Zm1-27.5a1,1,0,0,0-1,1v7.31c-8,0-11.85.26-13.75.63a67.56,67.56,0,0,1-.81-10.51C48.44,32.6,52.78,20,57,11.58a1,1,0,0,0,.11-.15A23.56,23.56,0,0,1,64,10.73a24.64,24.64,0,0,1,6.82.68c4.26,8.49,8.75,21.37,8.75,32.85a67.56,67.56,0,0,1-.81,10.51c-1.9-.36-5.8-.61-13.75-.63V46.81A1,1,0,0,0,64,45.81Zm1,27.5V56.13a119.34,119.34,0,0,1,13.41.57c-1.32,6.92-3.73,12.82-6.93,16.62Z"/><path d="M127,83.55a10.87,10.87,0,0,0-7.44,2.95c-.76-.56-1.64-1.08-1.78-1.17a14.46,14.46,0,0,0-7.2-1.91h0A14.48,14.48,0,0,0,97,92.82a13.72,13.72,0,0,0-4.43-.71A13.87,13.87,0,0,0,78.77,106a12.41,12.41,0,0,0,.27,2.5,6.29,6.29,0,0,0-4.6,6,6.2,6.2,0,0,0,2.71,5.13,4.39,4.39,0,0,0,2.61.88h0A9.49,9.49,0,0,0,89.05,128a1,1,0,0,0,0-2,7.47,7.47,0,0,1-1.23-14.84,1,1,0,0,0,.84-1V110s0-.1,0-.15a6.17,6.17,0,0,1,11-3.85,12.83,12.83,0,0,0-3.28,3.82,1,1,0,0,0,1.75,1,10.74,10.74,0,0,1,3.41-3.68A13.22,13.22,0,0,1,111.94,106a1,1,0,0,0,1.21-.54,7.51,7.51,0,0,1,5.84-4.33l.06,0h0a6.73,6.73,0,0,1,3.59.35,1,1,0,0,0,.38.08,1,1,0,0,0,.39-1.92,8.54,8.54,0,0,0-4.06-.56,8.84,8.84,0,0,1-1.31-4.6A8.94,8.94,0,0,1,127,85.55a1,1,0,0,0,0-2ZM116.07,94.48a10.84,10.84,0,0,0,1.21,5,9.55,9.55,0,0,0-5.56,4.4,15.21,15.21,0,0,0-10.37,1,8.18,8.18,0,0,0-14.71,4.44,9.43,9.43,0,0,0-7.08,9.16h0a2.45,2.45,0,0,1-1.23-.48,4.24,4.24,0,0,1,2-7.77,1,1,0,0,0,.88-1.26,11.63,11.63,0,0,1-.46-3A11.87,11.87,0,0,1,92.59,94.1h0a11.78,11.78,0,0,1,4.61.93,1,1,0,0,0,1.35-.63,12.51,12.51,0,0,1,12-9h0a12.45,12.45,0,0,1,6.19,1.64c.38.22,1,.59,1.44.94A10.85,10.85,0,0,0,116.07,94.48Z"/><path d="M64,86.44a1,1,0,0,0-1,1v29.31a1,1,0,0,0,2,0V87.44A1,1,0,0,0,64,86.44Z"/><path d="M56.23,81.88a1,1,0,0,0-1,1V96a1,1,0,0,0,2,0V82.88A1,1,0,0,0,56.23,81.88Z"/><path d="M71.77,81.88a1,1,0,0,0-1,1V96a1,1,0,0,0,2,0V82.88A1,1,0,0,0,71.77,81.88Z"/><path d="M71.89,32.64A7.89,7.89,0,1,0,64,40.52,7.9,7.9,0,0,0,71.89,32.64ZM64,38.52a5.89,5.89,0,1,1,5.89-5.89A5.89,5.89,0,0,1,64,38.52Z"/><path d="M15.75,41.83h2.13V44a1,1,0,0,0,2,0V41.83H22a1,1,0,0,0,0-2H19.88V37.7a1,1,0,0,0-2,0v2.13H15.75a1,1,0,0,0,0,2Z"/><path d="M96,10.06h2.13v2.13a1,1,0,1,0,2,0V10.06h2.13a1,1,0,0,0,0-2h-2.12V5.94a1,1,0,1,0-2,0V8.06H96a1,1,0,0,0,0,2Z"/><path d="M102.79,67.65v2.13h-2.13a1,1,0,0,0,0,2h2.13V73.9a1,1,0,0,0,2,0V71.77h2.13a1,1,0,0,0,0-2h-2.12V67.65a1,1,0,0,0-2,0Z"/><path d="M30.62,5.13h2.13V7.25a1,1,0,1,0,2,0V5.13h2.13a1,1,0,0,0,0-2H34.75V1a1,1,0,0,0-2,0V3.13H30.62a1,1,0,0,0,0,2Z"/></svg>