<svg xmlns="http://www.w3.org/2000/svg" data-name="Слой 1" viewBox="0 0 128 128" x="0px" y="0px"><path d="M20.53,16.6a5.61,5.61,0,1,0,6.88,3.94A5.57,5.57,0,0,0,20.53,16.6Zm4.6,7.2a3.61,3.61,0,1,1,.35-2.74A3.58,3.58,0,0,1,25.14,23.8Z"/><path d="M6.27,26.27C4.38,33.95,5.6,40.49,10,43a7.91,7.91,0,0,0,4,1A11.92,11.92,0,0,0,18,43.24a1,1,0,0,0-.68-1.88c-2.47.9-4.67.87-6.35-.09-3.29-1.88-4.24-7.1-3-13.32a43.19,43.19,0,0,0,7.52,5.42q.81.47,1.63.89a1,1,0,0,0,.92-1.77q-.78-.41-1.56-.85a40.43,40.43,0,0,1-8-5.93,41.21,41.21,0,0,1,9.8-17.19,40.4,40.4,0,0,1,9.17,3.88,40.57,40.57,0,0,1,8,6A39.32,39.32,0,0,1,32.45,26a1,1,0,1,0,1.77.94A42,42,0,0,0,37.14,20a20.94,20.94,0,0,1,4.27,6.78,1,1,0,1,0,1.89-.66,23.91,23.91,0,0,0-5.51-8.38C39.69,10.08,38.44,3.55,34,1,30.88-.78,26.68-.18,22.2,2.7a29.13,29.13,0,0,0-4.47,3.59,29.13,29.13,0,0,0-5.67-.83C6.72,5.25,2.81,6.86,1,10S-.18,17.34,2.7,21.82A29.11,29.11,0,0,0,6.27,26.27Zm17-21.89c3.83-2.46,7.29-3,9.75-1.62,3.38,1.94,4.38,7.14,3.08,13.39a43.29,43.29,0,0,0-7.6-5.49A43.18,43.18,0,0,0,20,6.91,26.16,26.16,0,0,1,23.28,4.38ZM2.75,11C4.16,8.53,7.45,7.27,12,7.45A26.15,26.15,0,0,1,16.1,8a43.18,43.18,0,0,0-5.44,7.54A43.57,43.57,0,0,0,6.9,24a26.15,26.15,0,0,1-2.52-3.27C1.92,16.92,1.35,13.45,2.75,11Z"/><path d="M54.08,27.42l.17,0a1,1,0,0,0,1-.83A39.59,39.59,0,0,1,65.6,6.11l4.45,4.45a33.39,33.39,0,0,0-8.34,15.66,1,1,0,1,0,2,.44,31.35,31.35,0,0,1,4.11-9.93,23.8,23.8,0,0,0,1.73,10.06,1,1,0,0,0,1.88-.7c-2.23-6-2.17-11,.12-14.08L84.22,24.73c-.34.32-.69.64-1,.95a1,1,0,0,0,1.3,1.52c.4-.34.78-.69,1.16-1l1,1A1,1,0,0,0,88,25.72l-1-1a33.53,33.53,0,0,0,6.85-10.86,59,59,0,0,1,10.58,8.23l-3.63,3.63a1,1,0,1,0,1.41,1.41l3.64-3.64a59.73,59.73,0,0,1,8.25,10.58,33.17,33.17,0,0,0-4.25,2,1,1,0,1,0,1,1.75,31.19,31.19,0,0,1,4.3-2c4.3,7.84,5.36,15.15,2.24,19.25l-6.31-6.31a1,1,0,0,0-1.41,1.41L116,56.5a9.55,9.55,0,0,1-5.63,1.75,1,1,0,0,0,0,2h0c.31,0,.6,0,.89-.06-.47.3-.93.59-1.41.86a1,1,0,1,0,1,1.74,33.55,33.55,0,0,0,6.56-4.85l4.45,4.45A39.56,39.56,0,0,1,110,70.22a1,1,0,1,0,.78,1.84,41.56,41.56,0,0,0,12.52-8.25l3,3a1,1,0,0,0,1.41-1.41l-8.84-8.84a33.53,33.53,0,0,0-47.4-47.4L66.3,4h0L62.61.29A1,1,0,0,0,61.2,1.71l3,3A41.57,41.57,0,0,0,53.27,26.26,1,1,0,0,0,54.08,27.42ZM92.8,10.93a40.47,40.47,0,0,0-6.2-2.71,22.73,22.73,0,0,0-9-1.33A31.31,31.31,0,0,1,94.18,2,31.52,31.52,0,0,1,92.8,10.93ZM85.64,23.32,72.91,10.59c2.87-2.17,7.45-2.35,13.06-.47a39,39,0,0,1,6.17,2.75A31.53,31.53,0,0,1,85.64,23.32Zm8.95-11.39a33.52,33.52,0,0,0,1.59-9.88A31.28,31.28,0,0,1,116,10.55L105.91,20.67A60.81,60.81,0,0,0,94.59,11.93Zm12.74,10.16L117.45,12a31.29,31.29,0,0,1,8.5,19.86,33.66,33.66,0,0,0-9.85,1.58A61.34,61.34,0,0,0,107.32,22.09Zm9.78,13.1A31.65,31.65,0,0,1,126,33.83a31.31,31.31,0,0,1-4.85,16.54C121.51,46,120.09,40.73,117.11,35.19Z"/><path d="M110.39,81.12a1,1,0,0,0,0,2H117a1,1,0,0,0,0-2Z"/><path d="M127,86H110.39a1,1,0,0,0,0,2H127a1,1,0,0,0,0-2Z"/><path d="M18.61,87a1,1,0,0,0-1-1H1a1,1,0,0,0,0,2H17.61A1,1,0,0,0,18.61,87Z"/><path d="M30.51,74h7.74a1,1,0,0,0,.88-1.48l-3.75-6.9V58.89l8.17,4.55v3.71c0,5,10.6,7.64,20.57,7.64s20.57-2.68,20.57-7.64V63.44L98,56a1,1,0,0,0,0-1.74L64.62,35.19a1,1,0,0,0-1,0L30.25,54.3a1,1,0,0,0,0,1.74l3.12,1.74v7.8l-3.75,6.9A1,1,0,0,0,30.51,74ZM82.69,63.72C79.16,61,71.47,59.51,64.12,59.51s-15,1.46-18.57,4.21V55.18c0-2.66,7.94-5.64,18.57-5.64s18.57,3,18.57,5.64ZM64.12,72.8c-10.63,0-18.57-3-18.57-5.64s7.94-5.64,18.57-5.64,18.57,3,18.57,5.64S74.75,72.8,64.12,72.8Zm0-35.59L95.46,55.16l-10.77,6v-6c0-5-10.6-7.64-20.57-7.64s-20.57,2.68-20.57,7.64v6l-10.77-6ZM34.38,67.93l2.19,4H32.19Z"/><path d="M107.39,87.69V34.15a5,5,0,0,0-5-5H25.61a5,5,0,0,0-5,5V87.69a5,5,0,0,0,5,5h76.79A5,5,0,0,0,107.39,87.69ZM25.61,31.15h76.79a3,3,0,0,1,3,3v47H22.61v-47A3,3,0,0,1,25.61,31.15Zm76.79,59.54H25.61a3,3,0,0,1-3-3V83.12h82.79v4.57A3,3,0,0,1,102.39,90.69Z"/><path d="M82.25,98.85a1,1,0,0,0,0-2H45.75a1,1,0,1,0,0,2Z"/><path d="M115.94,120.89h-8.3a3.56,3.56,0,1,0,0,7.11h8.3a3.56,3.56,0,0,0,0-7.11Zm0,5.11h-8.3a1.56,1.56,0,0,1,0-3.11h8.3a1.56,1.56,0,0,1,0,3.11Z"/><path d="M97.19,107.13H10.8a2.18,2.18,0,0,0-2,2.32v16.23a2.18,2.18,0,0,0,2,2.32H97.19a2.18,2.18,0,0,0,2-2.32V109.45A2.18,2.18,0,0,0,97.19,107.13Zm-86.31,2H97.11a.59.59,0,0,1,.08.32v13.3H10.8v-13.3A.59.59,0,0,1,10.89,109.13ZM97.11,126H10.89a.59.59,0,0,1-.08-.32v-.93H97.19v.93A.59.59,0,0,1,97.11,126Z"/><path d="M14.7,116.56h3.5a1,1,0,1,0,0-2H14.7a1,1,0,0,0,0,2Z"/><path d="M22.32,116.56h3.5a1,1,0,0,0,0-2h-3.5a1,1,0,1,0,0,2Z"/><path d="M29.94,116.56h3.5a1,1,0,0,0,0-2h-3.5a1,1,0,0,0,0,2Z"/><path d="M37.56,116.56h3.5a1,1,0,0,0,0-2h-3.5a1,1,0,0,0,0,2Z"/><path d="M45.18,116.56h3.5a1,1,0,0,0,0-2h-3.5a1,1,0,0,0,0,2Z"/><path d="M52.8,116.56h3.5a1,1,0,1,0,0-2H52.8a1,1,0,0,0,0,2Z"/><path d="M60.42,116.56h3.5a1,1,0,0,0,0-2h-3.5a1,1,0,0,0,0,2Z"/><path d="M89.78,116.56h3.5a1,1,0,0,0,0-2h-3.5a1,1,0,0,0,0,2Z"/><path d="M82.16,116.56h3.5a1,1,0,0,0,0-2h-3.5a1,1,0,0,0,0,2Z"/><path d="M74.54,116.56H78a1,1,0,0,0,0-2h-3.5a1,1,0,0,0,0,2Z"/><path d="M18.21,118.13h-3.5a1,1,0,0,0,0,2h3.5a1,1,0,0,0,0-2Z"/><path d="M25.83,118.13h-3.5a1,1,0,0,0,0,2h3.5a1,1,0,0,0,0-2Z"/><path d="M33.45,118.13h-3.5a1,1,0,0,0,0,2h3.5a1,1,0,0,0,0-2Z"/><path d="M41.07,118.13h-3.5a1,1,0,0,0,0,2h3.5a1,1,0,1,0,0-2Z"/><path d="M48.69,118.13h-3.5a1,1,0,0,0,0,2h3.5a1,1,0,0,0,0-2Z"/><path d="M56.31,118.13h-3.5a1,1,0,0,0,0,2h3.5a1,1,0,0,0,0-2Z"/><path d="M63.93,118.13h-3.5a1,1,0,0,0,0,2h3.5a1,1,0,0,0,0-2Z"/><path d="M93.29,118.13h-3.5a1,1,0,0,0,0,2h3.5a1,1,0,0,0,0-2Z"/><path d="M85.67,118.13h-3.5a1,1,0,0,0,0,2h3.5a1,1,0,0,0,0-2Z"/><path d="M78,118.13h-3.5a1,1,0,0,0,0,2H78a1,1,0,0,0,0-2Z"/><path d="M14.71,113h3.5a1,1,0,0,0,0-2h-3.5a1,1,0,0,0,0,2Z"/><path d="M22.33,113h3.5a1,1,0,0,0,0-2h-3.5a1,1,0,0,0,0,2Z"/><path d="M29.95,113h3.5a1,1,0,0,0,0-2h-3.5a1,1,0,0,0,0,2Z"/><path d="M37.57,113h3.5a1,1,0,1,0,0-2h-3.5a1,1,0,0,0,0,2Z"/><path d="M45.19,113h3.5a1,1,0,0,0,0-2h-3.5a1,1,0,0,0,0,2Z"/><path d="M52.81,113h3.5a1,1,0,0,0,0-2h-3.5a1,1,0,0,0,0,2Z"/><path d="M60.43,113h3.5a1,1,0,0,0,0-2h-3.5a1,1,0,0,0,0,2Z"/><path d="M89.79,113h3.5a1,1,0,0,0,0-2h-3.5a1,1,0,0,0,0,2Z"/><path d="M82.17,113h3.5a1,1,0,0,0,0-2h-3.5a1,1,0,0,0,0,2Z"/><path d="M74.55,113H78a1,1,0,0,0,0-2h-3.5a1,1,0,0,0,0,2Z"/></svg>