<svg version="1.2" xmlns="http://www.w3.org/2000/svg" viewBox="0 0 743 260" width="743" height="260"><defs><linearGradient id="P" gradientUnits="userSpaceOnUse"/><linearGradient id="g1" x2="1" href="#P" gradientTransform="matrix(1087.799,-148.232,52.824,387.65,-146.361,226.829)"><stop stop-color="#866ee7"/><stop offset=".25" stop-color="#ea60da"/><stop offset=".5" stop-color="#ed8f57"/><stop offset=".75" stop-color="#fbd41d"/><stop offset="1" stop-color="#2cca91"/></linearGradient></defs><style>.a{fill:url(#g1)}</style><path class="a" d="m18.3 33.2l1.5 1.5 2.5-1q3.5 2 5.4 2l5.8-1.5h2.9v1l1.5-1h0.5l3.4 2.4v1l-0.5-0.5h-0.9l0.5 2.5q-1.7 3.4-5.4 3.4h-7.4l-2.9 3.9-1 11.8v31.8q2.6 0 3.5 3.4l0.4-0.5h0.5l2.9 1.9q13.2-1.7 13.2-3.4l2.5-2.9h1.9l0.5 0.5 2-1-1-2.9 1.5-0.5-0.5-1.5h-1.5l-1.4 1h-1v-0.5q0.1-2.5 1-2.5l-1-3.4q0-4 4.9-5.8v0.5l0.5-0.5h1q0.7 0 1.9 3.9l-0.5 1.9 0.5 2-0.5 2.9 0.5 2.5-0.5 0.5v0.5l0.5 0.5v0.4l-0.5 2.5 0.5 1.4-0.5 0.5 0.5 3.4v3.5q-1.9 1.7-1.9 3.4-1.9 1.5-4.5 1.5h-25.4l-1.4-1.5q0.7 0 1.4-1.9h-1v-0.5l-2.4 0.9-1-0.9-2.4 1.9-0.5-0.5-0.5 0.5h-7.8q0 1.5-1 1.5h-1q-5.4 0-5.4-4.4v-2.5l0.5-0.5-0.5-0.5v-0.5q0-1.3 4.9-1.9h2.5l2.9 2.4h1q3.2-2 4.4-6.3l1.4-0.5v-0.5l-0.9-2.9q-1.5 0-1.5-1v-19.1l-0.5-6.8q1-2.5 1-8.8v-2.5q-2.1 0-2.9-2.9h-6.4q-6.4 0-6.4-4.4v-1q3.6-3.9 6.4-3.9l0.5 0.5h0.5l1.5-0.5q0 1.5 1.9 1.5l0.5 1.4h0.5v-0.5l-0.5-1.4 1.5-1 0.9 1q0-1.2 3.9-2.5zm35.3 51.9h-1v1.5l1-1zm36.4-34.6l1-1q0.1 1.4 11.8 12.3v0.5q-1 0-1 2.5l-1.6 0.5 0.5 2.6q0 1-1.5 1v0.5l1 1q0-1.1 2.1-2 1.5 0.3 1.5 4.1v1l-0.5 0.5 0.5 0.5v0.5q0 1.5-5.1 2.6h-9.7l-18.9 0.5q0 1.4-2.5 3.1l-0.6 2v0.5q2.9 2.4 4.1 5.7l7.7 6.1-0.5 0.5h5.6q2.3 0 5.6-3.6l9.2-8.7q4.6 0 4.6 4.1 0 4-6.7 11.3-7.2 4.1-14.3 4.5l-0.4-0.4v-0.6l-0.6 0.6h-1.5l-1-1.1 0.5-0.5q-2.6 0-2.6-1l0.6-0.5-1.1-1.6q-3.9 0-6.1 2.1l-6.1-5.1 2-2.6q-2 0-2-3.5h0.5l-0.5-0.6v-0.5l0.5-0.5v-0.5h-0.5l-1.6 1q-2.5 0-2.5-10.2 0-12.2 2-12.2l-0.5-1.6q0-2 2.6-2 0-4.1 10.7-10.8l5.6-1.5q5.8 0 7.7 2.1l1.5-2.1zm-21.5 17.3q0.1 1.8 4.1 4.1l0.5-0.5h16.9l0.5 0.5q3-1.8 4.6-4.6-4.2-8.1-11.3-8.1h-4.6q-6.6 0-10.7 8.6zm31.2 13.8h0.5l0.5 0.6v0.5l-0.5 0.5h-0.5l-0.5-0.5v-0.5zm2.5 1h0.5l2.6 3.1-0.6 0.5h-0.5l-2.5-3.1zm-35.8 5.6l-1.5 0.5v0.6l2 2h0.5l0.5-1.6q-1.5 0-1.5-1.5zm56.8-33.4l2.3-1.5h5.8l1.9 1.5 4.7-1.5q0.1 1 4.8 4.3 2.4 3.2 2.4 4.8v0.9l-1.9 2.9 1 1.4-0.5 1.9q0.9 0 0.9 1.5h1v-1.9h1l-0.5 16.7v5.7q0 2.6 2.8 4.3l3.4-3.3-0.5-2q2.4-3.3 5.3-3.3l1.4 3.8-1 4.8-1.9-1-0.5 0.5h-0.5l-1.4-0.5q-1.4 2.4-2.8 2.4v1l0.9 0.9-0.4 1.9-0.5-0.4-0.5 0.4h-0.5l-1-0.9-3.3 1.4h-2.4q-2.9-2.8-4.3-2.8l-9.5 5.2-1-1.9 1-2.9q-1.9 0.5-1.9 1.9l-0.5-0.4q-3.5 0.6-5.7 3.3h-2.9q-4.8 0-9.1-8.1-0.9-1.9-0.9-5.3v-4.7l0.9-1v1h1l-1.4-2q4.4-7 9.5-8.5-1.4-2.8-7.2-4.8l-0.9-2.4-0.5 0.5h-0.5l-0.4-0.5v-0.5h0.9v-3.3q0-4.4 5.7-8.6h0.5l1.5 0.9q0-1.1 4.7-2.3h1zm-2 13.8v0.5l2.9 2.8-0.9 1h0.5l7.6-0.5 1.4 0.9q5.3 0 5.3-3.3h0.4l0.5 0.5h0.5l0.5-0.5v-0.9q-1 0-1-2.4-3.7-5.3-6.7-5.3h-6.2q-4.8 3.2-4.8 7.2zm21 1.4h-0.9l0.5 0.5v1h-1.4v1.4h0.9l0.9-1.9zm-20 3.3l-2.9-2.9-0.4 0.5v0.5q2.1 1.9 3.3 1.9zm-10 15.7h0.5q0.9 0 4.8 4.8l2.8 1.9h0.5l3.8-0.9h2.9l1.4 0.9h1q7.1-3.8 8.5-8.6l-0.4-0.4v-0.5l0.4-2.9v-0.5q-1.4 0-2.8-2.3v-0.5h0.5l2.3 1.9v-0.5q-0.4-1.6-1.9-1.9l-18.6 2.8q-5.7 4.6-5.7 6.7zm43.9 10.1v0.4q-3.8 4.8-5.7 4.8l-0.5-0.5v-0.4q5.1-4.3 6.2-4.3zm42-48.2h0.5l5.9 0.9 1-0.9q0 1.5 6.4 6.9v0.5h-1l0.5 0.4v3.5q0 6.4-4.4 8.9h-4l-3.9-4-0.5 0.5v-0.5l0.5-0.5v-0.5q0-2.2-3.5-5.4v-0.5h-0.5q-11.3 8.8-11.3 17.3l-0.5 2.9-0.5-0.5h-0.5l-2 0.5q-3.9 0-3.9-3.4v-3q0-12.3-3.5-12.3 0-1-1.4-1l-1.5 0.5q-8.4 0-8.4-4.4 0-3.8 6.4-4.5h5.9l0.5 0.5h0.5l1.5-1.4h1l1.9 1.4 0.5-0.5v-0.5l6.9 6h0.5zm-19.2 8.3h-1l0.5 3h0.5l0.5-2.5zm-3 2h-1v0.5q1 2 2.5 2h0.5v-0.5q-2 0-2-2zm5.4 0.5l-1 1v1l1-1zm-1.5 22.2v-1h1q0 1.6 3.5 1.9 0 6.3 3.4 9v0.4l2.5-0.4h3.9l0.5 0.4h0.5v-0.4l-0.5-0.5v-0.5h0.5l1 1-0.5 0.4v0.5q2.5 0.1 2.5 1.5l-0.5 0.5v0.5h1v0.5q0 5.4-6.9 5.4h-11.4l-8.8 0.5-5.5-0.5-0.5 0.5q-2.4-2.7-2.4-3.9l-0.5 0.5h-0.5v-0.5l2-3.5v0.5q2.1-0.5 3.9-3.4 2.2 0 4.4 1.9h0.5q0.9-2.9 3-2.9v-2q0-6 3.4-6h1zm-3.9 9.5l-1.5 1.4 1.5-0.5zm69.9-42.2q14.2 1.7 14.2 12.3l-0.5 8.8v1l0.5 2-0.5 1.9v3.9l0.5 2-0.5 2v4.3h-1l-0.5-1.4-1.5 0.5v0.5q1.9 3.2 4 3.9h0.5v-0.5q-1.5 0-1.5-1v-0.5h0.5l6.3 5.4v3l-1.4 1.9 1 1-0.5 0.5h-1l-0.5-0.5h-0.5l-0.9 1h-2.5l-14.7-0.5-1-1.5 4.9-4.4h2l2.4 0.5q2-2.6 2-4.4l-1.5-2.5 1-1.9-0.5-1.5-1 1h1q0 1-2.9 1.4l0.5-0.4v-12.3l-0.5-2.9 1.4-4.5-1.4-1.4v-0.5q0-1 1.4-1-2.1-4.9-4.9-4.9h-4.9q-9.9 6.5-13.7 17.2v6.4l-0.5 7.3 3.9 3 1-1v1h0.5l1.4-0.5 1 2.4 0.5-0.5h0.5l0.5 0.5v0.5q-1.2 0-1.5 2.4-1.3 0-4.4 3l-0.4-0.5-0.5 0.5h-2q-15.7 0-15.7-3v-2.4l7.4-6.9q0-8.3 2.4-8.3l-1.9-2.5v-11.2l0.9-1.5q-0.9-3.3-7.3-7.9l-1.5-2.4v-0.5l1-1.4-1-1 2.5-2 1.4 1 0.5-0.5h0.5l3.9 0.5 1.5-0.5q4.9 0 5.9 6.8l2.4 1.5h0.5q1.7-0.6 4.9-5.8 3.2-1.3 3.5-2.5l2.4 0.5h0.5q0.8 0 1.5-2zm-33.4 5.4h0.5l0.5 0.5v0.5l-0.5 0.5h-0.5l-0.4-0.5v-0.5zm0 2h0.4l4.4 4.9-0.5 0.5h-0.4l-4.4-4.9zm-0.5 42.6v-0.5h0.5l2.9 3-0.5 0.5h-0.5zm76.1-67.7h0.5q6.8 1.9 6.8 6.8v2.4q0 2.6-3.9 5.4h-4.8l-4-3.4q-1.9 0-1.9-1l0.5-0.5h0.5l0.9 1v-0.5l-0.4-2.9q0-1.1 5.8-7.3zm-7.3 19.4l2.4 1.5 3.5-1v1q-2 0.3-2 1.5v0.9h0.5l1.5-0.5 0.4 1.5 6.4-2.9 1 4.4-0.5 2.4v21.4l-1 1-2-1v0.5l1 1.5q-1.9 1.1-1.9 2.9l-0.5-0.5h-0.5l1-3.4h-0.5l-2.9 1.9-0.5-0.5v-2.4l0.5-1.4-0.5-2.5v-16q0-1-1.5-1l-0.5-0.5v-0.5l0.5-0.5q-2 0-2-1.9-3.5 0-8.7 3.9l-0.5-0.5q-2.4-2.6-2.4-4.4l1.4-1-0.5-0.5v-0.4q3.7-3 8.8-3zm5.9 38l6.8-4.9 0.5 0.5v4.4q0 2.7 3.4 3.9v0.5l0.5-0.5h1.4l0.5 0.5 1.5-0.5 3.9 0.5 1.4-1.4 0.5 0.4v0.5l-2.4 3v1.4l1.4-1 1 1q-1.2 0-2.4 1.5l-2-1-6.8 1.5q0 1.9-2.9 1.9v0.5l-5.9-0.5h-10.2l-1.9 0.5q-4.4-0.3-4.4-1.9l0.5-1.5h-0.5l-1-1q0-5.8 5.4-5.8l1.4 1.9 0.5-0.5h4.4l0.5 0.5h0.5q0-1 2.4-1l1-4.4h1zm-19 10.8v-0.5h0.5l2.9 2.9v0.5h-0.5zm74.2-50.5q14.2 1.7 14.2 12.2l-0.5 8.9v1l0.5 1.9-0.5 2v3.9l0.5 2-0.5 1.9v4.4h-1l-0.5-1.5-1.4 0.5v0.5q1.8 3.2 3.9 4h0.5v-0.5q-1.5 0-1.5-1v-0.5h0.5l6.4 5.4v2.9l-1.5 2 1 1-0.5 0.5h-1l-0.4-0.5h-0.5l-1 1h-2.5l-14.7-0.5-1-1.5 4.9-4.4h2l2.5 0.4q1.9-2.6 1.9-4.3l-1.5-2.5 1-2-0.5-1.4-0.9 0.9h0.9q0 1-2.9 1.5l0.5-0.5v-12.2l-0.5-3 1.5-4.4-1.5-1.4v-0.5q0-1 1.5-1-2.2-4.9-5-4.9h-4.8q-10 6.5-13.8 17.1v6.4l-0.5 7.4 4 2.9 0.9-1v1h0.5l1.5-0.5 1 2.4 0.4-0.4h0.5l0.5 0.4v0.5q-1.2 0-1.4 2.5-1.4 0-4.4 3l-0.5-0.5-0.5 0.5h-2q-15.7 0-15.7-3v-2.5l7.4-6.8q0-8.3 2.4-8.3l-1.9-2.5v-11.3l1-1.4q-1-3.4-7.4-7.9l-1.5-2.4v-0.5l1-1.5-1-1 2.5-1.9 1.4 0.9 0.5-0.4h0.5l4 0.4 1.4-0.4q4.9 0 5.9 6.8l2.5 1.5h0.5q1.6-0.7 4.8-5.9 3.2-1.3 3.5-2.4l2.4 0.4h0.5q0.8 0 1.5-1.9zm-33.3 5.4h0.5l0.4 0.5v0.5l-0.4 0.5h-0.5l-0.5-0.5v-0.5zm0 2h0.5l4.3 4.8-0.4 0.5h-0.5l-4.4-4.8zm-0.5 42.6v-0.5h0.5l2.9 2.9-0.5 0.5h-0.5zm74.3-45.4l3.4-3.4h1.4q4.2 0 5.9 2.9l0.5-0.5h1q1.4 0 1.4 2 3.9-0.6 6.8-4.4h4q8.1 0 9.7 9.8-0.9 5.3-1.9 5.3l-1-1-0.5 0.5h-0.4l-0.5-0.5h-0.5l-1.5 0.5v-1.4l-0.5 0.4h-0.5l-0.5-0.4h-0.5v0.4l0.5 1.5-0.5 0.5h-0.4l-1.5-1.5h-0.5l0.5 0.5v1l-2 2.4v2q0 14-11.7 16.6l0.5 0.5v0.5l-1.5 1.9h1l1 1.5 1.5-0.5 0.5 0.5v0.5l0.4-0.5h0.5q2.5 0.3 2.5 2.5l3.4 0.9 0.4-0.4 2 0.4 3.9-0.9q6.4 4.9 6.4 9.7v2q-5.3 3.6-9.3 8.3h-0.5l1.5 2.9q-3.5 3.4-12.7 3.4h-3.4q-9.2 0-11.3-1.5l1-1.9q-2.4 0-2.4-1h-1.5q0 1.5-1.5 1.5-9.3-2.6-9.3-10.8v-2.9q1-1 1-4.4 2-1 2-2.4l-2-6.9v-3.4q0-2.4 5.4-7.8v-1.9l-1-5.4v-2q0-9.5 3.9-12.2 2.9-2.1 7.4-3.4zm-5.4 16.1q0 6.7 9.7 12.2 7.5 0 10.8-6.3l-0.5-2.5q0-3.4 2.4-3.4v-2q-1.3 0-5.8-6.3l-3.9-1.4h-3q-6.6 0-9.7 9.7zm27.3-7.3h-1v1.9h0.5zm-25.3 22l-4.9 4.5v0.9q1.1 2.3 3.4 3.4h1.5q3.8 0 7.3-4.8l-0.5-1.5 0.5-0.5-3.9 0.5-3.4-1v-0.5l0.5-0.5v-0.5zm-5.4 20.1v1l7.3 6.3-0.5 0.5v0.4q1.5 0 1.5 1.5h1.4l1-1.9-0.5-1.5 0.5-0.5h0.5l0.5 0.5 0.5-0.5h0.4l2 1.5h7.4q9.8 0 13.1-5.9-2.5-7.3-16.6-7.3h-8.8q-8.4 0-9.7 5.9zm-329.5 26.5l0.5 0.5v0.4l-0.9 2 1.9 1.9-0.5 0.5h-0.5l-1.9-1.9q-2.9 3.4-4.4 3.4v0.5l1 1 1.9-2h0.5l2 1.5 1.4-1 0.5 0.5v1h-0.5l0.5 5.8v10.3q0 3.6-4.4 6-2 0-3.9-5.5 0.5-1.9 2-1.9v-1.5l-1-0.9 0.5-0.5v-1q-2.5 0-4-3.5l0.5-0.5v-0.5q-5.1-4.8-8.3-4.8h-6.8l-7.9 7.8-0.5-0.5h-1l-7.3 6.9-0.5-0.5h-0.5l3.9-6.9-0.9-1q4.7-9.7 12.7-13.7 2.5-1 10.3-1.4 5.5 1.7 8.8 4.8l0.5-0.5q4.8-4.8 6.3-4.8zm-37.7 23.5l1-1v1.5h-1zm-2.9 0.9v-0.5h1.5l-1 1zm0.5 2.5l1-2.5 3.4 1.5 1.4-1.5h0.5l-0.5 5v7.3q0 4.5 2 13.7l-1 1q4.8 6.9 12.7 11.3h2q2.5 0 6.4-3.5 5.9-3.4 5.9-6.3 2.7-7.6 4.9-8.9l1.4 0.5v-0.5l1-0.9q1 0.9 1.5 5.8 0 12.5-13.7 20.6l-4.4 1h-3q-14.2 0-19.6-12.3v-0.5q0-0.9 4.9-1.4v-0.5l-1.9-1.5q0-1.9-3.9-1.9v-0.5l-0.5 0.5h-0.5q-2 0-3-16.7v-1.5l1-0.9-0.5-2.5 0.5-4.4h1l0.5 0.5zm51.2-25.5l1-1h2q2.5 0.9 4 4.5 2.5-0.3 2.5-2.5l10.5-1q2.5 0.7 2.5 1.5l-0.5 0.5v0.5q1.5 0 2.5 2.1-2 0-2.5 2.9h0.5l1.5-0.5 0.5 0.5v0.5l-0.5 0.5 0.5 3.5v36l-0.5 0.5 0.5 0.5v0.5l-1 2.5-1.5-0.5-2.5 0.5q2.5 2.8 2.5 4h0.5l0.5-0.5h0.5q1.2 3 2 3l1-1q1 0 1 2h6.5l2-0.5q6 1.4 6 2.5v1l0.5-0.5h0.5l1 1v0.5l-0.5-0.5h-1v1.5q0 3.8-2 4.6h-40q-5 0-5-5.1v-0.5q1.6-4 4.5-4 0 3 4.5 3 5 0 13.5-5h1.5v-0.5l-1-1.5 1-2-1.5-1-1 1-0.5-0.5-0.5 0.5-0.5-0.5v-3.5l0.5-0.5-0.5-0.5v-2.5l1-1 0.5 0.5h0.5l0.5-0.5v-1h-1l0.5-2.5h-0.5q-1.5 0-1.5-1v-9.5q0-6.4 1.5-6.4l-0.5-2.6v-8q0-3.5-6.5-6l-1 1h-4.5l-1-1 2.5-1.5-0.5-2.5h-0.5q0 2-1 2h-0.5l-0.5-0.5h-0.5l-1 1-1.5-1-2 1-1-1.5v-2l1.5-2-1-1 0.5-0.5h1l0.5 0.5zm15 8l-1.5-0.5v0.5l1 1h0.5zm38.2 10.4l8.3-3q3 0.5 3 1.5l4.9-1q7.3 2 9.8 5.4l-0.5 0.5q8.8 9.1 8.8 19.2-2.3 15.7-6.8 21-4.6 4.4-8.9 6.9l-0.5-0.5 0.5-0.5v-1h-0.5v1l-0.9-1h0.4l-0.4-1.5h-1.5v0.5l1 3-0.5 0.5-0.5-0.5h-1l-1.5 1h-0.9q-12.4-2.5-15.2-7.4l-0.5 0.5h-0.5q-3.4 0-6.9-16.7 3.5-2 3.5-2.9v-0.5l-0.5-0.5v-0.5l1.5-0.9 0.9 0.9-0.5 0.5v0.5l0.5 0.5h0.5l1.5-1h0.5v1l-0.5 0.5q0 7.2 5.9 12.2 1.4 0 1.4 2.5l0.5-0.5h1q1.8 0 3.9 2h2.5l1.9-0.5 2 0.5q1.5 0 8.3-8.9l1-0.9h0.5l-0.5-0.5v-0.5l1-7.4q0-11.5-8.8-16.2l-4.9-1.4h-3.5q-4.9 0-10.8 10.7-0.9 5-4.8 5 0 1.2-2 1.4-2-0.7-2-1.4l1-1-0.5-0.5v-1q0.4-7.5 10.8-18.1l-0.5-0.5zm24 4.4l-1 1v0.9l4.5 2.5 0.4-0.5v-0.5q-2.9-1.9-2.9-3.4zm-4.4 36.3h-0.5v1h-0.5l0.5 0.5v0.4l-0.5 2.5h1l1-1q-1-1.2-1-3.4zm35.9-44.7h0.5l3 3.5-0.5 0.5h-0.5l-3-3.5zm-2.5 3l2.5-0.5q1.6 1.9 1.6 4.5v8.1l-0.6 1.5 0.6 2.5v3q0 22.7 3.9 22.7l2.1 1.4h2.5q5.5 0 13.1-12v0.5l1.5-0.5-0.5-8.5v-1.1l0.5-3-0.5-2 0.5-0.5h0.5q0-6.4-3.5-8.6l-2.6-0.5q0-0.8-3.5-2v-2l3.5-3 2.6 0.5h4.5l2.5-0.5 0.5 0.5 1-1q1.5 0 2 7v33.2q0 1.3 5.6 3.1l1.4 2v0.5q-1 2-2.5 2l1.1 1.5-0.5 0.5-0.6-0.5h-1.4v1q1.4 0 1.4 1v0.5h-0.9l-1.6-1-1.5 1-4.5-0.5-1.5 0.5v-0.5l0.5-0.5v-0.5q-1.6 0-4.6-4l-0.4-0.5h-0.5q-6.7 6.5-12.1 6.5h-3.6q-6.7 0-11-8.6l-0.5-0.4 0.5-0.5v-0.5q-2.1 0-2.5-10.6v-3q0-4.1 3-4.1v-1l-2.5-3 1-5q0-4.2-3-7l0.5-0.6v-0.5q-3 0-4-2-1.6 0-1.6-1l1-1.5-0.5-0.5q1.6 0 3.6-2zm-13.6 4.5h0.5l3 3.6-0.5 0.5h-0.5l-3-3.6zm4.5 4.1h0.5l0.6 0.4v0.5l-0.6 0.5h-0.5l-0.5-0.5v-0.5zm32.7 1.5l-1-1.5h1l1 1-0.5 0.5zm-1.5-1h0.5l0.5 0.5v0.5l-0.5 0.6h-0.5l-0.5-0.6v-0.5zm54.2-26l1-1.9q5.3 1.3 5.3 4.3l1.5-0.9 0.5 0.4v1l-0.5-0.5h-0.5l-0.5 2.4-2.4-0.4-0.5 0.4h-0.5l1 3.9h1.4l0.5-0.5h0.5l0.5 0.5v22.8q0 1.5-2.9 1.5v0.5q1.4 0 1.4 1l-0.9 2.4h0.5l2.4-1.5 0.5 0.5v1h-0.5l0.5 8.2v12.6l3.3 3.4-0.4 1.4h0.4l1 1 5.3-4.4h0.5q0 1.3 2.9 2.5v0.4l-0.4 0.5h-0.5l-1-0.9v0.4l0.5 2.5-2.9 3.4-0.5-0.5-4.9 1-2.4-3-1.9 3v-0.5l-0.5 0.5h-0.5q-3.7-1.3-6.8-3.9-5 4.3-13 4.3-10.7 0-17.5-15l-1-3.9v-12.5q2.5-2.5 2.5-7.8 6.3-6.8 6.8-10.2 4-2.9 5.8-2.9 0.5 1.4 2.9 1.4h3.4l1.4-0.9q2.3 0 6.3 3.4h2v-0.5q-2 0-2-1.5l0.5-0.5h0.5l0.5 0.5 1.4-1.4h0.5l-0.5-2.5v-2.4q0-1 2-1l0.4-0.4v-0.5q-1.5 0-4.3-2.9-6.5 0-9.2-2.9v-2.9l5.3-1.5zm-24.2 40.7v2.9l-1 1.5 0.5 0.5-0.5 2.4v1h0.5l1.4-0.5v0.5q0 3.5 9.8 13 1.2-2.9 3.8-2.9h1l1.5 1q7.2-4.4 7.2-17.9v-2.9l1-1.5v-1.4q-2.6-2.1-4.8-6.8-4.6-4.9-8.3-4.9h-1q-9.3 0-11.1 16zm7.3 20.4h-0.5l-0.5 0.5v0.4l0.5 0.5h0.5l0.4-0.5v-0.4zm30.1 3.8l-1.5-0.5v1h1.5zm-31 0.5h-1v0.5l1 1zm119.2-62.5l8.4-4.8h2.4q2.6 0 5.4 3.8 0 4.9-5.9 4.9-2.2 3-3.4 3v15.1l-2.9 3.4 0.9 3.5h1q0-1.5 1-1.5l0.5 0.5-0.5 2.9 0.5 23.9-3.4 3.9 0.9 2q-1.9 0.3-2.4 2.5h-0.5q0-1-1.5-1l-2.4 1.4-5.8-16.1 0.9-1q0-2.6-3.9-7.3v-1.5q2.1 0.9 4.4 3.5l2 0.4v1h-1v0.5h1.9l2-1v-0.5l-1.5-0.4 0.5-1.5h0.5l0.5 0.5h0.5l3.4-6.9h-0.5l1-1.9v-0.5h-0.5q0 1.5-1.5 1.5v-0.5l1.5-1.5q-0.6-2.4-1.5-2.4h-0.5q-0.3 2.4-1.4 2.4l-0.5-0.5 0.5-0.4v-18.6q0-6.9-2.9-6.9v-0.5l0.4-0.4q-2.4-1.4-2.4-3l-1.4 1h-4l-0.9-1 4.4-3.9h4.3l-2.4 2.5 0.5 1.4h0.5q0-1.4 1-1.4h0.4v0.4l-0.4 0.5v0.5h0.9v-1.4h0.5l2 1.4zm-29.3-2.9l1.9-1.5h2l2.4 0.5 0.5-0.5q4.1 4.1 6.8 14.2 4.9 9.9 10.8 26.3l-0.5 0.5q-5.9-0.5-5.9-1.4-2.7-1.6-7.8-14.2 0-1.4-1-1.4l-0.4 0.4v-0.9h-2l-2.9 5.4v0.5l1 1.4v1h-1l-1.5-1h-0.5l-1 1v0.5l4 1 1.9-1 0.5 0.5-0.5 0.5v2.4l0.5 2.9-1.9 4.4h0.4l0.5-0.5h0.5l0.5 0.5-0.5 12.2v1q0 4 4.4 4.9 0-1.5 3.4-2 4.7 1.5 6.4 4.4-1 0-1 2l-0.5 0.5h-0.5l0.5 0.5v0.5l-2 1.9-0.4-0.5-0.5 0.5h-3q-2.9-3.2-5.3-3.4 0 1.1-2.5 1.5l-0.4-1.5h-2q0 1.5-1 1.5h-0.5l-3.9-1.5-7.3 4.4q-2.9-3.8-2.9-5.4 1.5-4.9 2.4-4.9l2 1q5.4-0.5 6.8-2.5h0.5v-5.8l0.5-1.5-0.5-2.4v-12.2l1-1.5v-0.5l-1.5-1.9v-2.9l0.5-1.5-0.5-2.5v-9.7q1.4-2.5 2.9-2.5v-0.4l-4.4-4.5-0.5 0.5h-1.4q-5 0-7.3-1.9l-1-1v-0.5l0.5 0.5h1q1.6-4.4 6.3-4.4zm22.5 0l-2 1v0.5h2l0.4-1.5zm23.9 1.5h0.5l0.5 0.4v0.5l-0.5 0.5h-0.5l-0.5-0.5v-0.5zm-42.9 3v0.5q0.9 1.9 2.4 1.9v1l-1.5 1.5-2.4-3.4h-0.5v0.9q0.8 0 2.9 3.5 1.3-0.2 2-2.5h1.4v-0.5q0-1.2-4.3-2.9zm15.1 52.2h0.5l0.5 0.5v0.5l-0.5 0.5h-0.5l-0.5-0.5v-0.5zm13.2 11.3l4.4-4.9 0.5 0.5v1l-4.4 4.3-0.5-0.4zm32.4-48.1l2.4-1.4h5.7l1.9 1.4 4.8-1.4q0 1 4.8 4.3 2.4 3.2 2.4 4.7v1l-1.9 2.8 0.9 1.5-0.5 1.9q1 0 1 1.4h0.9v-1.9h1l-0.5 16.7v5.7q0 2.7 2.9 4.4l3.3-3.4-0.5-1.9q2.5-3.4 5.3-3.4l1.4 3.9-0.9 4.8-1.9-1-0.5 0.5h-0.5l-1.4-0.5q-1.4 2.4-2.9 2.4v0.9l1 1-0.5 1.9-0.5-0.5-0.5 0.5h-0.4l-1-1-3.3 1.5h-2.4q-3-2.9-4.3-2.9l-9.6 5.2-0.9-1.8 0.9-2.9q-1.9 0.4-1.9 1.9l-0.4-0.5q-3.6 0.7-5.7 3.3h-3q-4.8 0-9-8-1-1.9-1-5.3v-4.8l1-0.9v0.9h1l-1.5-1.9q4.5-7 9.5-8.6-1.3-2.8-7.1-4.8l-0.9-2.3-0.5 0.5h-0.5l-0.5-0.5v-0.5h1v-3.4q0-4.4 5.7-8.6h0.5l1.4 1q0-1.2 4.8-2.4h0.9zm-1.9 13.9v0.4l2.9 2.9-1 1h0.5l7.7-0.5 1.4 0.9q5.2 0 5.2-3.3h0.5l0.5 0.4h0.4l0.5-0.4v-1q-0.9 0-0.9-2.4-3.8-5.2-6.7-5.2h-6.2q-4.8 3.1-4.8 7.2zm21 1.4h-0.9l0.4 0.4v1h-1.4v1.5h1l0.9-2zm-20 3.3l-2.9-2.8-0.5 0.5v0.5q2.2 1.8 3.4 1.8zm-10.1 15.8h0.5q1 0 4.8 4.8l2.9 1.9h0.5l3.8-1h2.8l1.4 1h1q7.1-3.8 8.6-8.6l-0.5-0.5v-0.5l0.5-2.8v-0.5q-1.5 0-2.9-2.4v-0.5h0.5l2.4 2v-0.5q-0.5-1.6-1.9-2l-18.6 2.9q-5.8 4.6-5.8 6.7zm43.9 10v0.5q-3.8 4.8-5.7 4.8l-0.5-0.5v-0.5q5.2-4.3 6.2-4.3zm26.3-65.2h0.9v0.5l0.5-0.5h0.9q0 1.4 1.5 1.4v1.5l0.5-0.5h0.4l1 0.9v0.5l-0.5-0.5h-0.9v0.5l-0.5 12.5 3.3 3.9q2.6-2.1 8.2-2.4l1 1.9 1.4-1h1q1.5 0 2.4 4.9 0 2.4-3.4 4.3l-9.6-1.5h-1l-3.8 3.9v23.6q0 3.1 5.8 7.7h2.4q5.3-3.1 5.3-10.6l0.4-0.5h0.5l-0.5-0.5v-0.5l0.5-0.4-0.5-0.5v-0.5l2-2.4h1.4l0.5 0.5 0.5-0.5h0.5q2.4 1.1 2.4 4.8v1.9q0 13.8-11.6 16.9v-0.5l-2.8 1h-2.5q-12-4.6-12-10.1-1.2 0-1.5-9.7v-9.1l0.5-0.5v-0.5l0.5 0.5h1l-1-2.9v-7.7q-2 0-2.9-2.9h-2.8l-3.9-0.9h-2l-1.4 0.9q-1.9-0.8-1.9-3.3v-0.5q2.7-5.3 12.5-5.3l3.9-3.4-0.5-2.4q0-12 3.9-12zm47.1-0.5h0.4q6.8 2 6.8 6.8v2.5q0 2.5-3.8 5.3h-4.9l-3.9-3.4q-1.9 0-1.9-1l0.5-0.4h0.4l1 0.9v-0.5l-0.5-2.9q0-1.1 5.9-7.3zm-7.3 19.5l2.4 1.5 3.4-1v1q-1.9 0.2-1.9 1.4v1h0.4l1.5-0.5 0.5 1.5 6.3-2.9 1 4.3-0.5 2.5v21.4l-1 1-1.9-1v0.5l0.9 1.5q-1.9 1-1.9 2.9l-0.5-0.5h-0.5l1-3.4h-0.5l-2.9 1.9-0.5-0.5v-2.4l0.5-1.5-0.5-2.4v-16.1q0-1-1.4-1l-0.5-0.4v-0.5l0.5-0.5q-2 0-2-2-3.5 0-8.7 3.9l-0.5-0.5q-2.5-2.6-2.5-4.3l1.5-1-0.5-0.5v-0.5q3.7-2.9 8.8-2.9zm5.8 38l6.8-4.9 0.5 0.5v4.4q0 2.7 3.4 3.9v0.5l0.5-0.5h1.5l0.4 0.5 1.5-0.5 3.9 0.5 1.5-1.5 0.5 0.5v0.5l-2.5 2.9v1.4l1.5-0.9 1 0.9q-1.2 0-2.5 1.5l-1.9-1-6.9 1.5q0 1.9-2.9 1.9v0.5l-5.8-0.5h-10.2l-2 0.5q-4.4-0.2-4.4-1.9l0.5-1.5h-0.5l-0.9-1q0-5.8 5.3-5.8l1.5 2 0.5-0.5h4.4l0.4 0.5h0.5q0-1 2.5-1l0.9-4.4h1zm-19 10.7v-0.5h0.5l2.9 2.9v0.5h-0.5zm48.3-50.1l7.7 1.9h4.5l1.9-0.4 0.5 0.4h0.5l1.5-0.4q0.9 1.1 1.4 4.8-8.2 3.1-8.3 5.9 5.9 17.7 9.8 24.9l0.5-0.5h0.4l1 2h0.5q0-2.1 2-3.9l4.9-13.2-0.5-0.5v-1.5l2.4-8.8-4.9-4.4-1.4 1-1.5-2.9 0.5-0.5h0.5l-0.5-1.5 1.4-1.9 0.5 0.5v0.5l0.5-0.5h0.5q2.5 0.6 2.5 1.4l-1 1.5v0.5q2.9 0.9 3.9 3.9 3.8 0 8.8-6.8h1.9q5.4 0 5.4 5.3-1.3 1.5-6.8 2.5-4.9 4.3-5.4 10.2l-10.3 29.8-3.4 3h-1.9q-4.4-1-4.4-2.5v-0.5l0.5-2.4q-2.9 0-2.9-3.9l-6.9-16.6v-1.5l0.5-0.5v-0.5q-1.4 0-4.4-10.2-3.6-4.9-6.8-4.9l-0.5 0.5h-1l-0.5-2 1-1-0.5-1.4 0.5 0.4q5.4-3.1 5.4-5.3zm81.4-1.1l1-1q0.1 1.4 11.8 12.3v0.5q-1 0-1 2.5l-1.6 0.5 0.5 2.6q0 1-1.5 1v0.5l1 1q0-1.1 2.1-2 1.5 0.3 1.5 4.1v1l-0.5 0.5 0.5 0.5v0.5q0 1.6-5.1 2.6h-9.7l-18.9 0.5q0 1.4-2.5 3.1l-0.6 2v0.6q2.9 2.3 4.1 5.6l7.7 6.1-0.5 0.5h5.6q2.4 0 5.6-3.6l9.2-8.6q4.6 0 4.6 4 0 4-6.7 11.3-7.2 4.1-14.2 4.6l-0.5-0.5v-0.6l-0.6 0.6h-1.5l-1-1.1 0.5-0.5q-2.6 0-2.6-1l0.6-0.5-1.1-1.6q-3.9 0-6.1 2.1l-6.1-5.1 2-2.6q-2 0-2-3.5h0.5l-0.5-0.6v-0.5l0.5-0.5v-0.5h-0.5l-1.5 1q-2.6 0-2.6-10.2 0-12.2 2-12.2l-0.5-1.6q0-2 2.6-2 0-4.1 10.7-10.8l5.6-1.5q5.9 0 7.7 2.1l1.5-2.1zm-21.5 17.3q0.1 1.8 4.1 4.1l0.6-0.5h16.8l0.5 0.5q3.1-1.8 4.6-4.5-4.2-8.2-11.3-8.2h-4.5q-6.6 0-10.8 8.6zm31.2 13.8h0.5l0.5 0.6v0.5l-0.5 0.5h-0.5l-0.5-0.5v-0.5zm2.5 1h0.5l2.6 3.1-0.6 0.5h-0.4l-2.6-3.1zm-35.8 5.6l-1.5 0.5v0.6l2 2h0.6l0.4-1.5q-1.5 0-1.5-1.6zm117.5-56.5h0.5l2.9 3.3-0.5 0.5h-0.5l-2.9-3.3zm-17.7 1.4q5.4 1.4 10.1 6.2 0.9 0 5.2-4.8l0.5 0.5 2.9-0.9v5.2l0.5 2q0 3.8-5.8 3.8l-0.4-0.5h-0.5l-2 0.5h-2.4v0.4q2.9 3 2.9 3.9l3.9-0.5 1.9 0.5 0.4-0.5 1.5 0.5-0.5 1.9 0.5 0.5v0.5q-0.5 3.2-2.9 6.2-0.7 1.9-1.4 1.9l-0.5-0.5h-0.5l-1.4 0.5q-2-2.2-3.4-11.9-5.2-5.3-8.1-5.3h-4.8q-5.3 0-9.6 11h-0.5v-1.5q-2.4 1.2-2.4 2.5h-0.4v-1.5l0.4-0.5v-0.5l-0.4-0.4h-1l-1.5 0.9h-0.9l-1-0.9q0.8-1.9 1.4-1.9h0.5v1.4l1-1-0.5-1.9q0-8.8 7.2-10.5 5.7-5.3 12-5.3zm-14.9 23v-1.4h1v0.5l-1.5 4.3 0.5 1.9q-0.6 3.8-1.9 3.8l-0.4-0.4h-0.5l-1 0.9-1.9-0.9q0 1.3-2 2.3l-0.9-0.9v-2.9l0.9-0.9-0.4-0.5v-2q0-0.9 3.3-0.9l1.5-1.9-1-1h0.5l1.5 0.5v-0.5l0.9-0.9zm-5.8 11.5l1-0.9 1.4 1.8-1.4 1-1-1zm24-0.9h2.4q10.1 0 10.1 2.4l9.6-1v0.5l0.5-0.5h0.4l2.9 2.4-1.4 0.5 0.5 0.5v0.5q0 3-7.7 4.2l-2.4 3v3.7l-0.5 10.6 0.5 5.3q-1.6 4.3-5.8 4.3-3.1-3.8-4.3-3.8-5 3.2-8.6 4.3-15.4 0-21.1-16.8l-1.9-12 8.1-7.2v7.7q0 11 10.1 18.2 1.4 0 1.4 1.5h1.5q9.6 0 9.6-8.2l1.9-2.4-0.5-0.5v-0.5l1.9-1.4q0-3.7-5.3-6.7-2.6 0-3.8-2.9l-0.5 0.5h-0.4v-0.5q1.3-5.7 2.8-5.7zm40-13.9l8.4-3q2.9 0.5 2.9 1.5l4.9-1q7.3 2 9.8 5.4l-0.5 0.5q8.8 9.1 8.8 19.2-2.3 15.7-6.8 21-4.6 4.4-8.8 6.9l-0.5-0.5 0.5-0.5v-1h-0.5v1l-1-1h0.5l-0.5-1.5h-1.5v0.5l1 3-0.5 0.5-0.5-0.5h-1l-1.5 1h-0.9q-12.4-2.5-15.2-7.4l-0.5 0.5h-0.5q-3.4 0-6.9-16.7 3.5-2 3.5-2.9v-0.5l-0.5-0.5v-0.5l1.5-0.9 0.9 0.9-0.5 0.5v0.5l0.5 0.5h0.5l1.5-1h0.5v1l-0.5 0.5q0 7.2 5.9 12.2 1.4 0 1.4 2.5l0.5-0.5h1q1.8 0 3.9 2h2.5l1.9-0.5 2 0.5q1.5 0 8.3-8.8l1-1h0.5l-0.5-0.5v-0.5l1-7.4q0-11.5-8.8-16.2l-4.9-1.4h-3.4q-5 0-10.8 10.7-1 5-4.9 5 0 1.2-2 1.5-2-0.8-2-1.5l1-1-0.5-0.5v-1q0.4-7.5 10.8-18.1l-0.5-0.5zm24 4.4l-1 1v0.9l4.5 2.5 0.5-0.5v-0.5q-3-1.9-3-3.4zm-4.4 36.3h-0.5v1h-0.5l0.5 0.5v0.5l-0.5 2.4h1l1-1q-1-1.2-1-3.4z"/></svg>